<mxfile host="www.draw.io" modified="2020-03-11T20:21:58.873Z" agent="Mozilla/5.0 (Windows NT 10.0; Win64; x64; rv:73.0) Gecko/20100101 Firefox/73.0" etag="N-rD5-92VGJYAa11ILv4" version="12.8.3" type="github">
  <diagram id="C5RBs43oDa-KdzZeNtuy" name="Page-1">
    <mxGraphModel dx="2185" dy="2000" grid="1" gridSize="10" guides="1" tooltips="1" connect="1" arrows="1" fold="1" page="1" pageScale="1" pageWidth="827" pageHeight="1169" math="0" shadow="0">
      <root>
        <mxCell id="WIyWlLk6GJQsqaUBKTNV-0" />
        <mxCell id="WIyWlLk6GJQsqaUBKTNV-1" parent="WIyWlLk6GJQsqaUBKTNV-0" />
        <mxCell id="zkfFHV4jXpPFQw0GAbJ--0" value="Player" style="swimlane;fontStyle=2;align=center;verticalAlign=top;childLayout=stackLayout;horizontal=1;startSize=26;horizontalStack=0;resizeParent=1;resizeLast=0;collapsible=1;marginBottom=0;rounded=0;shadow=0;strokeWidth=1;" parent="WIyWlLk6GJQsqaUBKTNV-1" vertex="1">
          <mxGeometry x="340" y="-40" width="350" height="170" as="geometry">
            <mxRectangle x="230" y="140" width="160" height="26" as="alternateBounds" />
          </mxGeometry>
        </mxCell>
        <mxCell id="zkfFHV4jXpPFQw0GAbJ--1" value="std::string m_name&#xa;&#xa;Inventory *const inventory&#xa;" style="text;align=left;verticalAlign=top;spacingLeft=4;spacingRight=4;overflow=hidden;rotatable=0;points=[[0,0.5],[1,0.5]];portConstraint=eastwest;" parent="zkfFHV4jXpPFQw0GAbJ--0" vertex="1">
          <mxGeometry y="26" width="350" height="64" as="geometry" />
        </mxCell>
        <mxCell id="zkfFHV4jXpPFQw0GAbJ--4" value="" style="line;html=1;strokeWidth=1;align=left;verticalAlign=middle;spacingTop=-1;spacingLeft=3;spacingRight=3;rotatable=0;labelPosition=right;points=[];portConstraint=eastwest;" parent="zkfFHV4jXpPFQw0GAbJ--0" vertex="1">
          <mxGeometry y="90" width="350" height="20" as="geometry" />
        </mxCell>
        <mxCell id="LPH6ivnVHNcIVXCUG9c9-33" value="Player(const std::string&amp;, Inventory &amp;)&#xa;&#xa;virtual std::string getName() const  = 0" style="text;align=left;verticalAlign=top;spacingLeft=4;spacingRight=4;overflow=hidden;rotatable=0;points=[[0,0.5],[1,0.5]];portConstraint=eastwest;" parent="zkfFHV4jXpPFQw0GAbJ--0" vertex="1">
          <mxGeometry y="110" width="350" height="60" as="geometry" />
        </mxCell>
        <mxCell id="zkfFHV4jXpPFQw0GAbJ--6" value="Inventory" style="swimlane;fontStyle=0;align=center;verticalAlign=top;childLayout=stackLayout;horizontal=1;startSize=26;horizontalStack=0;resizeParent=1;resizeLast=0;collapsible=1;marginBottom=0;rounded=0;shadow=0;strokeWidth=1;" parent="WIyWlLk6GJQsqaUBKTNV-1" vertex="1">
          <mxGeometry x="-180" y="-40" width="230" height="450" as="geometry">
            <mxRectangle x="130" y="380" width="160" height="26" as="alternateBounds" />
          </mxGeometry>
        </mxCell>
        <mxCell id="zkfFHV4jXpPFQw0GAbJ--8" value="int m_foodCount" style="text;align=left;verticalAlign=top;spacingLeft=4;spacingRight=4;overflow=hidden;rotatable=0;points=[[0,0.5],[1,0.5]];portConstraint=eastwest;rounded=0;shadow=0;html=0;" parent="zkfFHV4jXpPFQw0GAbJ--6" vertex="1">
          <mxGeometry y="26" width="230" height="28" as="geometry" />
        </mxCell>
        <mxCell id="LPH6ivnVHNcIVXCUG9c9-8" value="int m_medicineCount&#xa;&#xa;int m_wagonPartsCount&#xa;" style="text;align=left;verticalAlign=top;spacingLeft=4;spacingRight=4;overflow=hidden;rotatable=0;points=[[0,0.5],[1,0.5]];portConstraint=eastwest;rounded=0;shadow=0;html=0;" parent="zkfFHV4jXpPFQw0GAbJ--6" vertex="1">
          <mxGeometry y="54" width="230" height="56" as="geometry" />
        </mxCell>
        <mxCell id="zkfFHV4jXpPFQw0GAbJ--9" value="" style="line;html=1;strokeWidth=1;align=left;verticalAlign=middle;spacingTop=-1;spacingLeft=3;spacingRight=3;rotatable=0;labelPosition=right;points=[];portConstraint=eastwest;" parent="zkfFHV4jXpPFQw0GAbJ--6" vertex="1">
          <mxGeometry y="110" width="230" height="2" as="geometry" />
        </mxCell>
        <mxCell id="zkfFHV4jXpPFQw0GAbJ--10" value="void setFoodCount(int)&#xa;&#xa;void increaseFood(int)&#xa;&#xa;void useFood()&#xa;&#xa;void setMedicineCount(int)&#xa;&#xa;void increaseMedicine(int)&#xa;&#xa;void useMedicine()&#xa;&#xa;void setWagonPartsCount(int)&#xa;&#xa;void increaseWagonParts(int)&#xa;&#xa;void useWagonPart()&#xa;&#xa;int getFoodCount()&#xa;&#xa;int getMedicineCount()&#xa;&#xa;int getWagonPartsCount()&#xa;" style="text;align=left;verticalAlign=top;spacingLeft=4;spacingRight=4;overflow=hidden;rotatable=0;points=[[0,0.5],[1,0.5]];portConstraint=eastwest;fontStyle=0" parent="zkfFHV4jXpPFQw0GAbJ--6" vertex="1">
          <mxGeometry y="112" width="230" height="338" as="geometry" />
        </mxCell>
        <mxCell id="zkfFHV4jXpPFQw0GAbJ--13" value="Journey" style="swimlane;fontStyle=0;align=center;verticalAlign=top;childLayout=stackLayout;horizontal=1;startSize=26;horizontalStack=0;resizeParent=1;resizeLast=0;collapsible=1;marginBottom=0;rounded=0;shadow=0;strokeWidth=1;" parent="WIyWlLk6GJQsqaUBKTNV-1" vertex="1">
          <mxGeometry x="-300" y="465" width="160" height="150" as="geometry">
            <mxRectangle x="340" y="380" width="170" height="26" as="alternateBounds" />
          </mxGeometry>
        </mxCell>
        <mxCell id="zkfFHV4jXpPFQw0GAbJ--14" value="int totalMilesTravelled&#xa;&#xa;int milesToNextDest&#xa;" style="text;align=left;verticalAlign=top;spacingLeft=4;spacingRight=4;overflow=hidden;rotatable=0;points=[[0,0.5],[1,0.5]];portConstraint=eastwest;" parent="zkfFHV4jXpPFQw0GAbJ--13" vertex="1">
          <mxGeometry y="26" width="160" height="54" as="geometry" />
        </mxCell>
        <mxCell id="zkfFHV4jXpPFQw0GAbJ--15" value="" style="line;html=1;strokeWidth=1;align=left;verticalAlign=middle;spacingTop=-1;spacingLeft=3;spacingRight=3;rotatable=0;labelPosition=right;points=[];portConstraint=eastwest;" parent="zkfFHV4jXpPFQw0GAbJ--13" vertex="1">
          <mxGeometry y="80" width="160" height="8" as="geometry" />
        </mxCell>
        <mxCell id="LPH6ivnVHNcIVXCUG9c9-10" value="int getMilesTravelled()&#xa;&#xa;int getMilesToNextDest()" style="text;align=left;verticalAlign=top;spacingLeft=4;spacingRight=4;overflow=hidden;rotatable=0;points=[[0,0.5],[1,0.5]];portConstraint=eastwest;" parent="zkfFHV4jXpPFQw0GAbJ--13" vertex="1">
          <mxGeometry y="88" width="160" height="62" as="geometry" />
        </mxCell>
        <mxCell id="LPH6ivnVHNcIVXCUG9c9-22" style="edgeStyle=orthogonalEdgeStyle;rounded=0;orthogonalLoop=1;jettySize=auto;html=1;exitX=0.5;exitY=0;exitDx=0;exitDy=0;entryX=0.5;entryY=1;entryDx=0;entryDy=0;" parent="WIyWlLk6GJQsqaUBKTNV-1" source="LPH6ivnVHNcIVXCUG9c9-12" target="zkfFHV4jXpPFQw0GAbJ--0" edge="1">
          <mxGeometry relative="1" as="geometry" />
        </mxCell>
        <mxCell id="LPH6ivnVHNcIVXCUG9c9-12" value="Wagon Leader" style="swimlane;fontStyle=2;align=center;verticalAlign=top;childLayout=stackLayout;horizontal=1;startSize=26;horizontalStack=0;resizeParent=1;resizeLast=0;collapsible=1;marginBottom=0;rounded=0;shadow=0;strokeWidth=1;" parent="WIyWlLk6GJQsqaUBKTNV-1" vertex="1">
          <mxGeometry x="100" y="260" width="340" height="170" as="geometry">
            <mxRectangle x="230" y="140" width="160" height="26" as="alternateBounds" />
          </mxGeometry>
        </mxCell>
        <mxCell id="LPH6ivnVHNcIVXCUG9c9-13" value="int m_cashOnHand" style="text;align=left;verticalAlign=top;spacingLeft=4;spacingRight=4;overflow=hidden;rotatable=0;points=[[0,0.5],[1,0.5]];portConstraint=eastwest;" parent="LPH6ivnVHNcIVXCUG9c9-12" vertex="1">
          <mxGeometry y="26" width="340" height="26" as="geometry" />
        </mxCell>
        <mxCell id="LPH6ivnVHNcIVXCUG9c9-16" value="" style="line;html=1;strokeWidth=1;align=left;verticalAlign=middle;spacingTop=-1;spacingLeft=3;spacingRight=3;rotatable=0;labelPosition=right;points=[];portConstraint=eastwest;" parent="LPH6ivnVHNcIVXCUG9c9-12" vertex="1">
          <mxGeometry y="52" width="340" height="8" as="geometry" />
        </mxCell>
        <mxCell id="LPH6ivnVHNcIVXCUG9c9-17" value="WagonLeader(const std::string&amp;, Inventory&amp;)&#xa;&#xa;void changeCashOnHand(int)&#xa;&#xa;virtual std::string getName() const final override&#xa;&#xa;void displayInventory(const Inventory&amp;, const WagonLeader&amp;)" style="text;align=left;verticalAlign=top;spacingLeft=4;spacingRight=4;overflow=hidden;rotatable=0;points=[[0,0.5],[1,0.5]];portConstraint=eastwest;rounded=0;shadow=0;html=0;" parent="LPH6ivnVHNcIVXCUG9c9-12" vertex="1">
          <mxGeometry y="60" width="340" height="110" as="geometry" />
        </mxCell>
        <mxCell id="LPH6ivnVHNcIVXCUG9c9-31" style="edgeStyle=orthogonalEdgeStyle;rounded=0;orthogonalLoop=1;jettySize=auto;html=1;exitX=0.5;exitY=0;exitDx=0;exitDy=0;entryX=0.5;entryY=1;entryDx=0;entryDy=0;" parent="WIyWlLk6GJQsqaUBKTNV-1" source="LPH6ivnVHNcIVXCUG9c9-23" target="zkfFHV4jXpPFQw0GAbJ--0" edge="1">
          <mxGeometry relative="1" as="geometry" />
        </mxCell>
        <mxCell id="LPH6ivnVHNcIVXCUG9c9-23" value="Family Member" style="swimlane;fontStyle=2;align=center;verticalAlign=top;childLayout=stackLayout;horizontal=1;startSize=26;horizontalStack=0;resizeParent=1;resizeLast=0;collapsible=1;marginBottom=0;rounded=0;shadow=0;strokeWidth=1;" parent="WIyWlLk6GJQsqaUBKTNV-1" vertex="1">
          <mxGeometry x="470" y="260" width="430" height="430" as="geometry">
            <mxRectangle x="230" y="140" width="160" height="26" as="alternateBounds" />
          </mxGeometry>
        </mxCell>
        <mxCell id="LPH6ivnVHNcIVXCUG9c9-29" value="int m_sickWeight //Starts at 0&#xa;&#xa;int m_health //Start at 100&#xa;&#xa;int  m_appetite //Default is 2&#xa;" style="text;align=left;verticalAlign=top;spacingLeft=4;spacingRight=4;overflow=hidden;rotatable=0;points=[[0,0.5],[1,0.5]];portConstraint=eastwest;" parent="LPH6ivnVHNcIVXCUG9c9-23" vertex="1">
          <mxGeometry y="26" width="430" height="84" as="geometry" />
        </mxCell>
        <mxCell id="LPH6ivnVHNcIVXCUG9c9-25" value="" style="line;html=1;strokeWidth=1;align=left;verticalAlign=middle;spacingTop=-1;spacingLeft=3;spacingRight=3;rotatable=0;labelPosition=right;points=[];portConstraint=eastwest;" parent="LPH6ivnVHNcIVXCUG9c9-23" vertex="1">
          <mxGeometry y="110" width="430" height="12" as="geometry" />
        </mxCell>
        <mxCell id="LPH6ivnVHNcIVXCUG9c9-28" value="FamilyMember(const std::string&amp;, Inventory&amp;)&#xa;&#xa;void aquireSickness() //Add to sick weight&#xa;&#xa;void getBetter() //Use medicine from inventory to decrease sickWeight&#xa;&#xa;bool isDead() //Check if health is less than 0&#xa;&#xa;void increaseAppetite() //Larger sickWeight = Larger appetite&#xa;&#xa;void decreaseAppetite() //Decrease appetite by 1&#xa;&#xa;void decreaseHealth(int) //Larger sickWeight = Larger health decrease&#xa;&#xa;int getSickWeight()&#xa;&#xa;int getHealth()&#xa;&#xa;int getAppetite()&#xa;&#xa;virtual std::string getName() const final override&#xa;" style="text;align=left;verticalAlign=top;spacingLeft=4;spacingRight=4;overflow=hidden;rotatable=0;points=[[0,0.5],[1,0.5]];portConstraint=eastwest;" parent="LPH6ivnVHNcIVXCUG9c9-23" vertex="1">
          <mxGeometry y="122" width="430" height="308" as="geometry" />
        </mxCell>
        <mxCell id="LPH6ivnVHNcIVXCUG9c9-34" value="Date" style="swimlane;fontStyle=0;align=center;verticalAlign=top;childLayout=stackLayout;horizontal=1;startSize=26;horizontalStack=0;resizeParent=1;resizeLast=0;collapsible=1;marginBottom=0;rounded=0;shadow=0;strokeWidth=1;" parent="WIyWlLk6GJQsqaUBKTNV-1" vertex="1">
          <mxGeometry x="-100" y="465" width="160" height="200" as="geometry">
            <mxRectangle x="130" y="380" width="160" height="26" as="alternateBounds" />
          </mxGeometry>
        </mxCell>
        <mxCell id="LPH6ivnVHNcIVXCUG9c9-35" value="int month" style="text;align=left;verticalAlign=top;spacingLeft=4;spacingRight=4;overflow=hidden;rotatable=0;points=[[0,0.5],[1,0.5]];portConstraint=eastwest;" parent="LPH6ivnVHNcIVXCUG9c9-34" vertex="1">
          <mxGeometry y="26" width="160" height="26" as="geometry" />
        </mxCell>
        <mxCell id="LPH6ivnVHNcIVXCUG9c9-36" value="int day" style="text;align=left;verticalAlign=top;spacingLeft=4;spacingRight=4;overflow=hidden;rotatable=0;points=[[0,0.5],[1,0.5]];portConstraint=eastwest;rounded=0;shadow=0;html=0;" parent="LPH6ivnVHNcIVXCUG9c9-34" vertex="1">
          <mxGeometry y="52" width="160" height="28" as="geometry" />
        </mxCell>
        <mxCell id="LPH6ivnVHNcIVXCUG9c9-37" value="int year&#xa;&#xa;enum Months&#xa;" style="text;align=left;verticalAlign=top;spacingLeft=4;spacingRight=4;overflow=hidden;rotatable=0;points=[[0,0.5],[1,0.5]];portConstraint=eastwest;rounded=0;shadow=0;html=0;" parent="LPH6ivnVHNcIVXCUG9c9-34" vertex="1">
          <mxGeometry y="80" width="160" height="60" as="geometry" />
        </mxCell>
        <mxCell id="LPH6ivnVHNcIVXCUG9c9-38" value="" style="line;html=1;strokeWidth=1;align=left;verticalAlign=middle;spacingTop=-1;spacingLeft=3;spacingRight=3;rotatable=0;labelPosition=right;points=[];portConstraint=eastwest;" parent="LPH6ivnVHNcIVXCUG9c9-34" vertex="1">
          <mxGeometry y="140" width="160" height="2" as="geometry" />
        </mxCell>
        <mxCell id="LPH6ivnVHNcIVXCUG9c9-39" value="void increaseDate()&#xa;&#xa;void getDate()&#xa;" style="text;align=left;verticalAlign=top;spacingLeft=4;spacingRight=4;overflow=hidden;rotatable=0;points=[[0,0.5],[1,0.5]];portConstraint=eastwest;fontStyle=0" parent="LPH6ivnVHNcIVXCUG9c9-34" vertex="1">
          <mxGeometry y="142" width="160" height="58" as="geometry" />
        </mxCell>
        <mxCell id="ujdBgQ368yUOR3aBqQAS-1" value="Menu" style="swimlane;fontStyle=0;align=center;verticalAlign=top;childLayout=stackLayout;horizontal=1;startSize=26;horizontalStack=0;resizeParent=1;resizeLast=0;collapsible=1;marginBottom=0;rounded=0;shadow=0;strokeWidth=1;" parent="WIyWlLk6GJQsqaUBKTNV-1" vertex="1">
          <mxGeometry x="90" y="465" width="360" height="150" as="geometry">
            <mxRectangle x="130" y="380" width="160" height="26" as="alternateBounds" />
          </mxGeometry>
        </mxCell>
        <mxCell id="ujdBgQ368yUOR3aBqQAS-5" value="" style="line;html=1;strokeWidth=1;align=left;verticalAlign=middle;spacingTop=-1;spacingLeft=3;spacingRight=3;rotatable=0;labelPosition=right;points=[];portConstraint=eastwest;" parent="ujdBgQ368yUOR3aBqQAS-1" vertex="1">
          <mxGeometry y="26" width="360" height="2" as="geometry" />
        </mxCell>
        <mxCell id="ujdBgQ368yUOR3aBqQAS-6" value="void welcomeMenu()&#xa;&#xa;void showRules()&#xa;&#xa;void aboutTheGame()&#xa;&#xa;void displayFamilyMembers(const std::vector&lt;FamilyMember&gt;)" style="text;align=left;verticalAlign=top;spacingLeft=4;spacingRight=4;overflow=hidden;rotatable=0;points=[[0,0.5],[1,0.5]];portConstraint=eastwest;fontStyle=0" parent="ujdBgQ368yUOR3aBqQAS-1" vertex="1">
          <mxGeometry y="28" width="360" height="122" as="geometry" />
        </mxCell>
        <mxCell id="TEOQJaO2EMKdjx9Uq9Gn-0" value="Merchant" style="swimlane;fontStyle=0;align=center;verticalAlign=top;childLayout=stackLayout;horizontal=1;startSize=26;horizontalStack=0;resizeParent=1;resizeLast=0;collapsible=1;marginBottom=0;rounded=0;shadow=0;strokeWidth=1;" parent="WIyWlLk6GJQsqaUBKTNV-1" vertex="1">
          <mxGeometry x="-350" y="700" width="310" height="200" as="geometry">
            <mxRectangle x="130" y="380" width="160" height="26" as="alternateBounds" />
          </mxGeometry>
        </mxCell>
        <mxCell id="TEOQJaO2EMKdjx9Uq9Gn-1" value="Inventory m_inventory&#xa;&#xa;Pricing m_pricing&#xa;" style="text;align=left;verticalAlign=top;spacingLeft=4;spacingRight=4;overflow=hidden;rotatable=0;points=[[0,0.5],[1,0.5]];portConstraint=eastwest;" parent="TEOQJaO2EMKdjx9Uq9Gn-0" vertex="1">
          <mxGeometry y="26" width="310" height="54" as="geometry" />
        </mxCell>
        <mxCell id="TEOQJaO2EMKdjx9Uq9Gn-4" value="" style="line;html=1;strokeWidth=1;align=left;verticalAlign=middle;spacingTop=-1;spacingLeft=3;spacingRight=3;rotatable=0;labelPosition=right;points=[];portConstraint=eastwest;" parent="TEOQJaO2EMKdjx9Uq9Gn-0" vertex="1">
          <mxGeometry y="80" width="310" height="2" as="geometry" />
        </mxCell>
        <mxCell id="TEOQJaO2EMKdjx9Uq9Gn-5" value="void buyItems(Inventory&amp;, WagonLeader&amp;)&#xa;&#xa;void sellItems(Inventory&amp;, WagonLeader&amp;)&#xa;&#xa;void setRandomInventory()&#xa;&#xa;void interactWithMerchant(Inventory&amp;, WagonLeader&amp;)" style="text;align=left;verticalAlign=top;spacingLeft=4;spacingRight=4;overflow=hidden;rotatable=0;points=[[0,0.5],[1,0.5]];portConstraint=eastwest;fontStyle=0" parent="TEOQJaO2EMKdjx9Uq9Gn-0" vertex="1">
          <mxGeometry y="82" width="310" height="118" as="geometry" />
        </mxCell>
        <mxCell id="TEOQJaO2EMKdjx9Uq9Gn-12" value="Pricing //Not yet Created" style="swimlane;fontStyle=0;align=center;verticalAlign=top;childLayout=stackLayout;horizontal=1;startSize=26;horizontalStack=0;resizeParent=1;resizeLast=0;collapsible=1;marginBottom=0;rounded=0;shadow=0;strokeWidth=1;" parent="WIyWlLk6GJQsqaUBKTNV-1" vertex="1">
          <mxGeometry x="-570" y="700" width="200" height="210" as="geometry">
            <mxRectangle x="130" y="380" width="160" height="26" as="alternateBounds" />
          </mxGeometry>
        </mxCell>
        <mxCell id="TEOQJaO2EMKdjx9Uq9Gn-13" value="int m_buyFoodPrice&#xa;int m_buyMedicinePrice&#xa;int m_buyWagonPartsPrice&#xa;int m_sellFoodPrice&#xa;int m_sellMedicinePrice&#xa;int m_sellWagonpartsPrice&#xa;" style="text;align=left;verticalAlign=top;spacingLeft=4;spacingRight=4;overflow=hidden;rotatable=0;points=[[0,0.5],[1,0.5]];portConstraint=eastwest;" parent="TEOQJaO2EMKdjx9Uq9Gn-12" vertex="1">
          <mxGeometry y="26" width="200" height="94" as="geometry" />
        </mxCell>
        <mxCell id="TEOQJaO2EMKdjx9Uq9Gn-14" value="" style="line;html=1;strokeWidth=1;align=left;verticalAlign=middle;spacingTop=-1;spacingLeft=3;spacingRight=3;rotatable=0;labelPosition=right;points=[];portConstraint=eastwest;" parent="TEOQJaO2EMKdjx9Uq9Gn-12" vertex="1">
          <mxGeometry y="120" width="200" height="2" as="geometry" />
        </mxCell>
        <mxCell id="TEOQJaO2EMKdjx9Uq9Gn-15" value="void setRandomPrices()&#xa;&#xa;void getBuyingPrices()&#xa;&#xa;void getSellingPrices()&#xa;&#xa;&#xa;" style="text;align=left;verticalAlign=top;spacingLeft=4;spacingRight=4;overflow=hidden;rotatable=0;points=[[0,0.5],[1,0.5]];portConstraint=eastwest;fontStyle=0" parent="TEOQJaO2EMKdjx9Uq9Gn-12" vertex="1">
          <mxGeometry y="122" width="200" height="78" as="geometry" />
        </mxCell>
      </root>
    </mxGraphModel>
  </diagram>
</mxfile>
